<?xml version="1.0" encoding="UTF-8"?> <svg xmlns="http://www.w3.org/2000/svg" width="81" height="81" viewBox="0 0 81 81"> <g transform="translate(0 -0.259)"> <rect width="81" height="81" rx="40.5" transform="translate(0 0.259)" fill="#bbb"></rect> <g transform="translate(23.217 22.056)"> <path d="M68.494,104.57l2.536-9.007a18.074,18.074,0,1,1,6.752,6.616Zm9.763-5.68.553.338A15.01,15.01,0,1,0,73.979,94.5l.373.58-1.46,5.187Z" transform="translate(-68.494 -68.321)" fill="#fff"></path> <path d="M151.9,152.887l-1.241-.06a1.622,1.622,0,0,0-1.067.324,5.036,5.036,0,0,0-1.859,2.533c-.441,1.745.24,3.882,2,6.018a20.074,20.074,0,0,0,10.856,7.015,5.859,5.859,0,0,0,4.48-.493,3.587,3.587,0,0,0,1.744-2.261l.2-.823a.557.557,0,0,0-.36-.639l-4.195-1.719a.7.7,0,0,0-.778.17l-1.647,1.9a.507.507,0,0,1-.53.14,12.715,12.715,0,0,1-6.978-5.308.386.386,0,0,1,.06-.472l1.574-1.619a.522.522,0,0,0,.1-.6l-1.808-3.761A.645.645,0,0,0,151.9,152.887Z" transform="translate(-139.147 -142.713)" fill="#fff"></path> </g> </g> </svg> 