<?xml version="1.0" encoding="UTF-8"?> <svg xmlns="http://www.w3.org/2000/svg" xmlns:xlink="http://www.w3.org/1999/xlink" width="81" height="81" viewBox="0 0 81 81"> <defs> <linearGradient id="linear-gradient" y1="1" x2="0.96" y2="0.037" gradientUnits="objectBoundingBox"> <stop offset="0" stop-color="#ffbe50"></stop> <stop offset="0.53" stop-color="#fa4d49"></stop> <stop offset="1" stop-color="#d710b4"></stop> </linearGradient> </defs> <g id="Сгруппировать_35" data-name="Сгруппировать 35" transform="translate(0.084 -0.259)"> <rect id="Прямоугольник_10013" data-name="Прямоугольник 10013" width="81" height="81" rx="40.5" transform="translate(-0.084 0.259)" fill="url(#linear-gradient)"></rect> <g id="Сгруппировать_1" data-name="Сгруппировать 1" transform="translate(20.895 20.895)"> <path id="Контур_12854" data-name="Контур 12854" d="M27.966,0h-16.1A11.88,11.88,0,0,0,0,11.866v16.1A11.88,11.88,0,0,0,11.866,39.832h16.1A11.88,11.88,0,0,0,39.832,27.966v-16.1A11.88,11.88,0,0,0,27.966,0Zm7.859,27.966a7.859,7.859,0,0,1-7.859,7.859h-16.1a7.859,7.859,0,0,1-7.859-7.859v-16.1a7.859,7.859,0,0,1,7.859-7.859h16.1a7.859,7.859,0,0,1,7.859,7.859v16.1Z" transform="translate(0)" fill="#fff"></path> <path id="Контур_12855" data-name="Контур 12855" d="M143.3,133a10.3,10.3,0,1,0,10.3,10.3A10.313,10.313,0,0,0,143.3,133Zm0,16.6A6.295,6.295,0,1,1,149.6,143.3,6.295,6.295,0,0,1,143.3,149.6Z" transform="translate(-123.386 -123.386)" fill="#fff"></path> <circle id="Эллипс_1140" data-name="Эллипс 1140" cx="2.469" cy="2.469" r="2.469" transform="translate(27.769 7.223)" fill="#fff"></circle> </g> </g> </svg> 