<?xml version="1.0" encoding="UTF-8"?> <svg xmlns="http://www.w3.org/2000/svg" width="81" height="81" viewBox="0 0 81 81"> <g id="Сгруппировать_36" data-name="Сгруппировать 36" transform="translate(0.169 -0.259)"> <rect id="Прямоугольник_10013" data-name="Прямоугольник 10013" width="81" height="81" rx="40.5" transform="translate(-0.169 0.259)" fill="#4680c2"></rect> <path id="Контур_13136" data-name="Контур 13136" d="M135.95,117.545c.313-.984,0-1.7-1.387-1.7h-4.608a2.04,2.04,0,0,0-2.013,1.3,39.263,39.263,0,0,1-5.682,9.44c-1.074,1.074-1.566,1.432-2.148,1.432-.313,0-.716-.358-.716-1.342V117.5c0-1.163-.358-1.7-1.342-1.7h-7.248a1.11,1.11,0,0,0-1.163,1.074c0,1.118,1.655,1.387,1.834,4.519v6.8c0,1.476-.268,1.745-.85,1.745-1.566,0-5.369-5.771-7.651-12.348-.447-1.3-.895-1.79-2.058-1.79H96.266c-1.342,0-1.566.626-1.566,1.3,0,1.208,1.566,7.293,7.293,15.346,3.8,5.5,9.216,8.456,14.093,8.456,2.953,0,3.311-.671,3.311-1.79v-4.161c0-1.342.268-1.566,1.208-1.566.671,0,1.879.358,4.608,3,3.132,3.132,3.669,4.563,5.414,4.563h4.608c1.342,0,1.969-.671,1.611-1.969-.4-1.3-1.924-3.177-3.892-5.414-1.074-1.253-2.684-2.64-3.177-3.311-.671-.895-.492-1.253,0-2.058-.045,0,5.592-7.964,6.174-10.648" transform="translate(-74.966 -87.94)" fill="#fff" fill-rule="evenodd"></path> </g> </svg> 