<?xml version="1.0" encoding="UTF-8"?> <svg xmlns="http://www.w3.org/2000/svg" width="81" height="81" viewBox="0 0 81 81"> <g transform="translate(0.084 -0.259)"> <rect width="81" height="81" rx="40.5" transform="translate(-0.084 0.259)" fill="#bbb"></rect> <g transform="translate(20.895 20.895)"> <path d="M27.966,0h-16.1A11.88,11.88,0,0,0,0,11.866v16.1A11.88,11.88,0,0,0,11.866,39.832h16.1A11.88,11.88,0,0,0,39.832,27.966v-16.1A11.88,11.88,0,0,0,27.966,0Zm7.859,27.966a7.859,7.859,0,0,1-7.859,7.859h-16.1a7.859,7.859,0,0,1-7.859-7.859v-16.1a7.859,7.859,0,0,1,7.859-7.859h16.1a7.859,7.859,0,0,1,7.859,7.859v16.1Z" transform="translate(0)" fill="#fff"></path> <path d="M143.3,133a10.3,10.3,0,1,0,10.3,10.3A10.313,10.313,0,0,0,143.3,133Zm0,16.6A6.295,6.295,0,1,1,149.6,143.3,6.295,6.295,0,0,1,143.3,149.6Z" transform="translate(-123.386 -123.386)" fill="#fff"></path> <circle cx="2.469" cy="2.469" r="2.469" transform="translate(27.769 7.223)" fill="#fff"></circle> </g> </g> </svg> 